<svg class="inline-block" height="1rem" viewBox="0 0 237.067 237.067"><path fill="#ffa32b" d="M208.844 112.889h-16.933V67.733c0-12.417-10.16-22.577-22.578-22.577h-45.155V28.222C124.178 12.644 111.534 0 95.956 0c-15.58 0-28.223 12.644-28.223 28.222v16.934H22.578C10.16 45.156.113 55.316.113 67.733v42.898h16.82c16.82 0 30.48 13.66 30.48 30.48s-13.66 30.48-30.48 30.48H0v42.898c0 12.418 10.16 22.578 22.578 22.578h42.898v-16.934c0-16.82 13.66-30.48 30.48-30.48s30.48 13.66 30.48 30.48v16.934h42.897c12.418 0 22.578-10.16 22.578-22.578v-45.156h16.933c15.58 0 28.223-12.643 28.223-28.222s-12.644-28.222-28.223-28.222z"/></svg>
